<mxfile host="app.diagrams.net" agent="Mozilla/5.0 (Windows NT 10.0; Win64; x64) AppleWebKit/537.36 (KHTML, like Gecko) Chrome/138.0.0.0 Safari/537.36 Edg/138.0.0.0" version="28.0.7">
  <diagram id="zODZXYkzOwmdCBIVVvN4" name="Page-1">
    <mxGraphModel dx="823" dy="459" grid="1" gridSize="10" guides="1" tooltips="1" connect="1" arrows="1" fold="1" page="1" pageScale="1" pageWidth="827" pageHeight="1169" math="0" shadow="0">
      <root>
        <mxCell id="0" />
        <mxCell id="1" parent="0" />
        <mxCell id="5B9Hs_-Eanf8-6PZ5Ltr-1" value="Region" style="rounded=0;whiteSpace=wrap;html=1;fillColor=#d5e8d4;strokeColor=#82b366;" parent="1" vertex="1">
          <mxGeometry x="200" y="160" width="120" height="60" as="geometry" />
        </mxCell>
        <mxCell id="5B9Hs_-Eanf8-6PZ5Ltr-2" value="Comuna" style="rounded=0;whiteSpace=wrap;html=1;fillColor=#d5e8d4;strokeColor=#82b366;" parent="1" vertex="1">
          <mxGeometry x="440" y="160" width="120" height="60" as="geometry" />
        </mxCell>
        <mxCell id="5B9Hs_-Eanf8-6PZ5Ltr-4" value="-Idcomuna&lt;div&gt;-Idregion&lt;/div&gt;&lt;div&gt;-Comuna&lt;/div&gt;&lt;div&gt;-informacionadicional&lt;/div&gt;" style="text;html=1;align=center;verticalAlign=middle;resizable=0;points=[];autosize=1;strokeColor=none;fillColor=none;" parent="1" vertex="1">
          <mxGeometry x="455" y="205" width="140" height="70" as="geometry" />
        </mxCell>
        <mxCell id="5B9Hs_-Eanf8-6PZ5Ltr-5" value="-Idregion&lt;div&gt;&lt;br&gt;&lt;div&gt;Region&lt;/div&gt;&lt;/div&gt;" style="text;html=1;align=center;verticalAlign=middle;resizable=0;points=[];autosize=1;strokeColor=none;fillColor=none;" parent="1" vertex="1">
          <mxGeometry x="220" y="220" width="80" height="60" as="geometry" />
        </mxCell>
        <mxCell id="KAPgPlbNE6iF4pTxgMdm-2" style="edgeStyle=orthogonalEdgeStyle;rounded=0;orthogonalLoop=1;jettySize=auto;html=1;entryX=0;entryY=0.5;entryDx=0;entryDy=0;" edge="1" parent="1" source="5B9Hs_-Eanf8-6PZ5Ltr-6" target="5B9Hs_-Eanf8-6PZ5Ltr-2">
          <mxGeometry relative="1" as="geometry" />
        </mxCell>
        <mxCell id="5B9Hs_-Eanf8-6PZ5Ltr-6" value="1 : N" style="text;html=1;align=center;verticalAlign=middle;resizable=0;points=[];autosize=1;strokeColor=none;fillColor=none;" parent="1" vertex="1">
          <mxGeometry x="355" y="175" width="50" height="30" as="geometry" />
        </mxCell>
        <mxCell id="KAPgPlbNE6iF4pTxgMdm-3" style="edgeStyle=orthogonalEdgeStyle;rounded=0;orthogonalLoop=1;jettySize=auto;html=1;exitX=1;exitY=0.5;exitDx=0;exitDy=0;entryX=-0.004;entryY=0.479;entryDx=0;entryDy=0;entryPerimeter=0;" edge="1" parent="1" source="5B9Hs_-Eanf8-6PZ5Ltr-1" target="5B9Hs_-Eanf8-6PZ5Ltr-6">
          <mxGeometry relative="1" as="geometry" />
        </mxCell>
      </root>
    </mxGraphModel>
  </diagram>
</mxfile>
